<mxfile host="app.diagrams.net" modified="2025-10-28T00:00:00.000Z" agent="Claude Code" version="24.0.0">
  <diagram name="Security Group依存関係" id="security-group">
    <mxGraphModel dx="1422" dy="794" grid="1" gridSize="10" guides="1" tooltips="1" connect="1" arrows="1" fold="1" page="1" pageScale="1" pageWidth="1169" pageHeight="827" math="0" shadow="0">
      <root>
        <mxCell id="0" />
        <mxCell id="1" parent="0" />

        <!-- Title -->
        <mxCell id="title" value="Security Group 依存関係 - 最小権限の原則" style="text;html=1;strokeColor=none;fillColor=none;align=center;verticalAlign=middle;whiteSpace=wrap;rounded=0;fontSize=20;fontStyle=1" vertex="1" parent="1">
          <mxGeometry x="250" y="20" width="700" height="40" as="geometry" />
        </mxCell>

        <!-- Internet -->
        <mxCell id="internet" value="インターネット" style="ellipse;whiteSpace=wrap;html=1;fillColor=#dae8fc;strokeColor=#6c8ebf;fontSize=14;fontStyle=1" vertex="1" parent="1">
          <mxGeometry x="80" y="120" width="140" height="80" as="geometry" />
        </mxCell>

        <!-- ALB -->
        <mxCell id="alb" value="ALB" style="rounded=1;whiteSpace=wrap;html=1;fillColor=#fff2cc;strokeColor=#d6b656;fontSize=14;fontStyle=1" vertex="1" parent="1">
          <mxGeometry x="300" y="120" width="200" height="80" as="geometry" />
        </mxCell>

        <!-- ECS -->
        <mxCell id="ecs" value="ECS Fargate" style="rounded=1;whiteSpace=wrap;html=1;fillColor=#d5e8d4;strokeColor=#82b366;fontSize=14;fontStyle=1" vertex="1" parent="1">
          <mxGeometry x="600" y="120" width="200" height="80" as="geometry" />
        </mxCell>

        <!-- RDS -->
        <mxCell id="rds" value="RDS PostgreSQL" style="rounded=1;whiteSpace=wrap;html=1;fillColor=#ffe6cc;strokeColor=#d79b00;fontSize=14;fontStyle=1" vertex="1" parent="1">
          <mxGeometry x="900" y="120" width="200" height="80" as="geometry" />
        </mxCell>

        <!-- Arrows -->
        <mxCell id="arrow1" style="edgeStyle=orthogonalEdgeStyle;rounded=0;orthogonalLoop=1;jettySize=auto;html=1;strokeWidth=3;endArrow=block;endFill=1;strokeColor=#6c8ebf;" edge="1" parent="1" source="internet" target="alb">
          <mxGeometry relative="1" as="geometry" />
        </mxCell>

        <mxCell id="arrow2" style="edgeStyle=orthogonalEdgeStyle;rounded=0;orthogonalLoop=1;jettySize=auto;html=1;strokeWidth=3;endArrow=block;endFill=1;strokeColor=#d79b00;" edge="1" parent="1" source="alb" target="ecs">
          <mxGeometry relative="1" as="geometry" />
        </mxCell>

        <mxCell id="arrow3" style="edgeStyle=orthogonalEdgeStyle;rounded=0;orthogonalLoop=1;jettySize=auto;html=1;strokeWidth=3;endArrow=block;endFill=1;strokeColor=#82b366;" edge="1" parent="1" source="ecs" target="rds">
          <mxGeometry relative="1" as="geometry" />
        </mxCell>

        <!-- Labels -->
        <mxCell id="label1" value="443" style="text;html=1;strokeColor=none;fillColor=none;align=center;verticalAlign=middle;whiteSpace=wrap;rounded=0;fontSize=11;fontStyle=1" vertex="1" parent="1">
          <mxGeometry x="220" y="150" width="40" height="20" as="geometry" />
        </mxCell>

        <mxCell id="label2" value="3000" style="text;html=1;strokeColor=none;fillColor=none;align=center;verticalAlign=middle;whiteSpace=wrap;rounded=0;fontSize=11;fontStyle=1" vertex="1" parent="1">
          <mxGeometry x="520" y="150" width="40" height="20" as="geometry" />
        </mxCell>

        <mxCell id="label3" value="5432" style="text;html=1;strokeColor=none;fillColor=none;align=center;verticalAlign=middle;whiteSpace=wrap;rounded=0;fontSize=11;fontStyle=1" vertex="1" parent="1">
          <mxGeometry x="820" y="150" width="40" height="20" as="geometry" />
        </mxCell>

        <!-- Note -->
        <mxCell id="note" value="【最小権限の原則】&#xa;&#xa;✅ 必要最小限のポート、プロトコル、送信元のみ許可&#xa;✅ RDS は完全閉域（アウトバウンドなし）&#xa;✅ Security Group の依存関係を明確化" style="rounded=0;whiteSpace=wrap;html=1;fillColor=#ffffcc;strokeColor=#d6b656;align=left;verticalAlign=top;fontSize=11;" vertex="1" parent="1">
          <mxGeometry x="80" y="300" width="1020" height="100" as="geometry" />
        </mxCell>

      </root>
    </mxGraphModel>
  </diagram>
</mxfile>
